<?xml version="1.0" encoding="UTF-8" ?>
<!DOCTYPE svg PUBLIC "-//W3C//DTD SVG 1.1//EN" "http://www.w3.org/Graphics/SVG/1.1/DTD/svg11.dtd">
<svg width="466pt" height="437pt" viewBox="0 0 466 437" version="1.1" xmlns="http://www.w3.org/2000/svg">
<g id="#ffffffff">
<path fill="#ffffff" opacity="1.00" d=" M 158.19 218.30 C 159.34 218.33 160.49 218.34 161.64 218.34 C 163.63 220.07 163.25 224.18 160.09 223.97 C 157.21 223.65 157.28 220.35 158.19 218.30 Z" />
<path fill="#ffffff" opacity="1.00" d=" M 316.29 218.35 C 317.46 218.34 318.63 218.32 319.80 218.29 C 320.50 220.13 320.48 222.04 319.90 223.90 C 318.44 223.87 316.98 223.74 315.55 223.46 C 315.02 221.69 315.19 219.87 316.29 218.35 Z" />
</g>
<g id="#080808ff">
<path fill="#080808" opacity="1.00" d=" M 129.57 41.54 C 131.81 40.05 134.56 41.19 136.58 42.50 C 144.86 47.78 150.68 56.02 155.44 64.44 C 163.64 81.27 168.33 99.63 170.99 118.11 C 173.16 128.62 173.46 139.38 174.42 150.05 C 178.09 149.49 181.63 148.33 185.26 147.55 C 204.18 143.33 223.70 143.25 242.99 143.63 C 252.34 144.13 261.68 144.94 271.01 145.90 C 275.95 146.45 280.80 147.69 285.78 147.89 C 287.49 137.97 286.48 127.87 286.32 117.88 C 287.14 102.68 292.46 88.26 296.58 73.74 C 299.08 65.27 301.21 56.11 307.54 49.55 C 310.54 46.68 314.53 43.91 318.91 44.74 C 324.27 46.65 328.19 51.15 331.11 55.87 C 336.24 64.18 338.30 73.87 340.55 83.25 C 344.18 103.91 344.97 125.19 341.58 145.95 C 340.96 152.28 338.69 158.24 336.39 164.11 C 336.89 165.82 338.82 166.70 340.02 167.94 C 356.68 181.64 368.23 200.44 376.97 219.92 C 378.20 222.75 379.29 225.67 380.97 228.28 C 384.95 227.85 388.94 227.43 392.85 226.48 C 400.34 224.63 408.06 224.14 415.65 222.81 C 423.30 222.10 431.22 221.07 438.74 223.23 C 438.73 223.85 438.71 225.07 438.70 225.69 C 430.46 230.54 420.97 232.56 411.77 234.81 C 403.57 236.45 395.39 238.19 387.14 239.55 C 387.50 243.17 388.80 246.59 390.19 249.92 C 393.59 250.01 397.00 249.84 400.38 249.39 C 410.54 248.05 420.80 247.67 430.95 246.27 C 437.28 245.76 443.66 245.24 450.00 245.67 C 452.58 246.01 456.54 246.40 456.33 249.87 C 449.41 253.80 441.24 253.98 433.64 255.69 C 420.21 257.45 406.80 259.46 393.29 260.51 C 393.20 264.29 393.61 268.14 395.34 271.56 C 410.45 274.58 426.00 274.45 441.03 277.98 C 443.85 278.88 447.42 279.33 449.11 282.07 C 449.29 284.60 446.26 284.05 444.58 284.44 C 429.88 285.34 415.20 283.70 400.55 282.71 C 401.85 287.48 404.74 291.56 407.22 295.78 C 416.23 310.52 428.65 322.97 436.50 338.45 C 445.79 355.98 452.24 374.88 457.79 393.88 C 449.70 395.86 441.27 395.78 433.00 396.01 C 422.80 395.75 412.43 396.78 402.37 394.67 C 399.09 394.25 398.27 390.59 396.67 388.25 C 386.44 370.92 370.25 357.94 353.02 348.00 C 330.96 335.52 306.60 327.74 281.96 322.26 C 267.08 319.56 252.08 317.50 236.99 316.48 C 204.73 315.36 171.51 318.56 141.80 331.99 C 132.05 336.31 123.08 342.19 114.56 348.55 C 100.99 358.94 89.93 372.09 79.32 385.37 C 77.40 387.74 75.94 390.67 73.10 392.09 C 75.53 385.95 79.42 380.52 82.92 374.96 C 99.64 349.46 124.77 329.71 153.42 319.30 C 170.61 312.56 188.94 309.32 207.25 307.54 C 229.25 305.94 251.47 306.98 273.17 311.00 C 303.09 316.55 332.15 326.05 360.16 337.87 C 361.26 338.31 362.43 338.57 363.60 338.86 C 364.05 330.08 358.55 322.76 354.33 315.58 C 351.02 309.99 349.24 303.51 349.49 297.00 C 349.31 288.52 352.55 280.47 352.96 272.05 C 353.40 262.46 351.58 252.94 349.07 243.74 C 348.49 241.74 347.57 239.87 346.65 238.02 C 340.20 240.78 335.10 246.65 327.80 247.52 C 319.63 247.89 310.89 248.62 303.38 244.69 C 297.34 241.90 292.35 236.56 290.99 229.94 C 289.99 224.14 290.22 217.66 293.66 212.66 C 297.90 206.29 304.99 202.08 312.45 200.69 C 318.72 199.80 325.18 200.19 331.24 202.07 C 333.39 203.17 335.03 201.18 336.51 199.94 C 330.24 187.47 318.84 178.74 308.38 169.94 C 314.99 158.19 324.92 148.24 329.18 135.19 C 331.39 127.81 331.00 120.00 331.47 112.39 C 331.51 106.46 332.24 100.48 331.32 94.60 C 328.51 79.92 325.60 64.77 317.93 51.75 C 310.17 53.96 305.87 61.61 303.93 68.91 C 300.18 80.48 296.71 92.16 294.07 104.04 C 291.99 114.04 293.36 124.30 294.90 134.27 C 296.11 140.06 297.07 145.95 296.78 151.88 C 296.71 154.93 294.20 157.35 291.66 158.67 C 289.14 158.74 286.83 157.47 284.40 156.95 C 268.19 153.32 251.67 150.50 235.00 150.63 C 217.70 150.35 200.48 153.09 183.66 156.96 C 177.19 158.67 170.72 160.57 164.04 161.27 C 162.67 156.01 163.05 150.47 161.59 145.22 C 160.53 140.72 157.37 136.80 157.53 132.02 C 157.62 125.92 158.43 119.75 157.15 113.72 C 154.00 98.05 148.72 82.55 139.81 69.17 C 137.01 65.49 133.85 61.27 129.03 60.34 C 122.26 67.77 120.88 78.36 120.78 88.01 C 121.01 101.76 123.82 115.46 128.76 128.29 C 130.57 132.99 132.88 137.91 137.44 140.53 C 140.03 142.54 143.89 143.66 145.08 146.99 C 144.82 150.93 142.81 154.89 144.01 158.82 C 146.86 162.49 151.83 164.30 153.55 168.86 C 140.02 181.34 126.30 194.49 118.56 211.51 C 115.66 217.67 113.54 224.22 112.55 230.97 C 115.99 233.32 120.12 235.01 122.49 238.61 C 123.63 239.76 123.20 241.32 122.98 242.73 C 119.11 243.74 114.91 242.01 111.24 243.13 C 111.02 243.63 110.58 244.61 110.36 245.11 C 113.77 247.25 121.01 247.18 120.15 252.83 C 117.64 256.94 112.07 255.57 108.05 256.11 C 106.34 255.89 106.05 257.99 105.30 259.04 C 108.48 261.53 112.86 262.99 114.51 266.98 C 110.52 272.38 103.06 270.63 97.40 272.47 C 91.47 273.76 88.03 279.09 84.41 283.44 C 56.30 316.90 32.37 354.11 15.52 394.50 C 14.54 397.34 11.30 395.87 9.14 395.82 C 9.97 384.76 13.84 374.22 18.28 364.16 C 33.32 330.88 55.72 301.70 78.11 273.12 C 62.00 273.55 46.20 277.91 30.06 277.61 C 28.29 277.93 25.19 276.31 27.07 274.36 C 30.40 270.70 35.55 269.64 40.13 268.36 C 53.82 264.61 67.97 263.12 81.94 260.80 C 85.16 260.62 86.56 257.38 87.99 254.98 C 73.01 254.28 57.99 255.28 43.00 254.63 C 35.69 254.30 28.14 254.39 21.19 251.79 C 19.79 251.46 19.24 250.10 18.52 249.03 C 21.23 245.59 25.92 245.33 29.91 244.80 C 50.82 243.02 71.80 244.69 92.73 244.69 C 93.74 242.35 94.57 239.93 94.84 237.39 C 85.17 233.68 75.60 229.69 65.88 226.14 C 61.26 224.25 56.20 222.85 52.46 219.39 C 51.28 218.45 51.20 216.55 52.59 215.76 C 56.05 214.78 59.74 215.29 63.23 215.84 C 77.00 218.85 90.31 223.61 103.97 227.05 C 106.02 222.51 107.31 217.68 109.14 213.06 C 114.48 198.74 123.58 186.09 134.26 175.27 C 135.26 174.21 136.19 173.09 137.11 171.97 C 135.84 169.24 134.18 166.68 133.33 163.79 C 132.60 158.55 136.15 152.76 132.92 147.96 C 123.74 136.15 118.09 121.79 115.81 107.06 C 113.83 98.55 114.29 89.76 114.51 81.11 C 115.48 70.36 118.43 59.79 123.09 50.06 C 124.69 46.88 126.52 43.55 129.57 41.54 M 313.39 207.60 C 305.19 209.00 297.14 216.12 297.83 224.96 C 300.28 238.01 316.85 244.77 328.44 239.48 C 334.75 237.27 339.78 230.85 338.41 223.94 C 336.27 213.01 324.07 205.82 313.39 207.60 Z" />
<path fill="#080808" opacity="1.00" d=" M 150.39 200.61 C 156.49 199.75 163.03 200.29 168.35 203.66 C 176.75 208.34 181.68 218.28 180.54 227.78 C 179.35 237.64 172.22 247.00 162.23 249.08 C 151.32 251.26 139.44 245.79 133.33 236.60 C 128.81 229.55 128.02 219.80 132.55 212.55 C 136.25 206.12 143.16 201.87 150.39 200.61 M 150.40 208.59 C 139.75 209.72 133.84 222.80 139.23 231.82 C 144.06 242.68 160.15 244.41 168.07 236.07 C 174.40 229.87 173.78 218.55 167.34 212.67 C 162.82 208.57 156.25 207.46 150.40 208.59 Z" />
<path fill="#080808" opacity="1.00" d=" M 154.40 213.49 C 160.00 211.78 166.84 215.17 167.78 221.19 C 169.36 227.19 164.30 233.82 158.00 233.35 C 150.99 233.59 145.78 225.56 148.12 219.18 C 148.91 216.25 151.61 214.28 154.40 213.49 M 158.19 218.30 C 157.28 220.35 157.21 223.65 160.09 223.97 C 163.25 224.18 163.63 220.07 161.64 218.34 C 160.49 218.34 159.34 218.33 158.19 218.30 Z" />
<path fill="#080808" opacity="1.00" d=" M 204.98 221.87 C 215.25 213.14 229.76 212.33 242.60 213.62 C 250.44 215.03 258.57 217.12 265.12 221.84 C 258.98 221.57 253.12 219.41 247.01 218.85 C 238.68 218.00 230.25 217.89 221.91 218.72 C 216.16 219.21 210.75 221.50 204.98 221.87 Z" />
<path fill="#080808" opacity="1.00" d=" M 309.36 213.52 C 317.36 210.01 327.77 217.89 325.52 226.60 C 322.44 235.47 307.33 235.99 303.98 227.07 C 301.90 222.15 303.96 215.22 309.36 213.52 M 316.29 218.35 C 315.19 219.87 315.02 221.69 315.55 223.46 C 316.98 223.74 318.44 223.87 319.90 223.90 C 320.48 222.04 320.50 220.13 319.80 218.29 C 318.63 218.32 317.46 218.34 316.29 218.35 Z" />
<path fill="#080808" opacity="1.00" d=" M 221.19 227.39 C 229.81 225.76 238.99 224.54 247.44 227.65 C 248.64 228.09 249.57 229.05 250.24 230.12 C 251.00 232.97 247.40 233.69 245.45 234.48 C 241.29 235.51 237.34 237.13 233.86 239.63 C 231.61 239.09 230.00 237.02 227.73 236.40 C 223.71 235.12 219.27 234.67 215.93 231.84 C 216.55 229.39 218.79 227.82 221.19 227.39 Z" />
<path fill="#080808" opacity="1.00" d=" M 222.32 293.31 C 229.47 287.64 240.91 288.36 247.19 294.98 C 239.55 299.38 230.36 296.99 222.28 295.29 C 222.29 294.79 222.31 293.80 222.32 293.31 Z" />
<path fill="#080808" opacity="1.00" d=" M 236.15 347.07 C 250.75 344.00 267.21 349.80 275.84 362.18 C 279.21 367.24 281.91 372.98 282.40 379.11 C 271.44 374.86 260.55 369.77 248.73 368.50 C 235.97 367.26 223.59 371.48 211.79 375.78 C 211.30 361.80 222.96 349.88 236.15 347.07 Z" />
<path fill="#080808" opacity="1.00" d=" M 139.68 356.73 C 147.00 353.39 155.23 356.40 161.73 360.22 C 170.06 365.30 177.71 372.43 181.31 381.68 C 176.40 380.51 171.70 378.55 166.74 377.60 C 160.83 376.95 154.87 377.37 148.95 377.35 C 142.79 377.28 136.74 378.88 131.07 381.16 C 124.98 383.68 119.86 387.93 114.03 390.93 C 114.92 386.42 117.10 382.32 119.22 378.29 C 123.96 369.55 130.30 360.83 139.68 356.73 Z" />
<path fill="#080808" opacity="1.00" d=" M 329.32 365.35 C 334.45 362.32 340.78 361.65 346.48 363.36 C 355.93 366.12 363.96 372.29 370.77 379.23 C 374.31 383.02 378.04 386.82 380.18 391.62 C 366.12 384.90 350.55 381.92 335.06 381.17 C 327.96 380.81 320.97 382.29 314.08 383.82 C 316.21 375.85 322.27 369.36 329.32 365.35 Z" />
</g>
</svg>
